<svg height="23" width="27" xmlns="http://www.w3.org/2000/svg"><rect id="backgroundrect" width="100%" height="100%" x="0" y="0" fill="none" stroke="none"/><g class="currentLayer" style=""><title>Layer 1</title><path d="M7.3 7.5l-2.8 2.8 7.7 7.8 14-14-2.9-2.8-11 11.1z" id="svg_1" class="" fill="#ffffff" fill-opacity="1"/><path d="M21 20c0 .5-.5 1-1 1H3a1 1 0 0 1-1-1V3c0-.5.5-1 1-1h17L21.4.4A3 3 0 0 0 20 0H3a3 3 0 0 0-3 3v17a3 3 0 0 0 3 3h17a3 3 0 0 0 3-3v-9.8l-2 2z" id="svg_2" class="" fill="#ffffff" fill-opacity="1"/></g></svg>