<svg height="23" width="23" xmlns="http://www.w3.org/2000/svg"><rect id="backgroundrect" width="100%" height="100%" x="0" y="0" fill="none" stroke="none"/><g class="currentLayer" style=""><title>Layer 1</title><path d="M20 2c.5 0 1 .5 1 1v17c0 .5-.5 1-1 1H3a1 1 0 0 1-1-1V3c0-.5.5-1 1-1zm0-2H3a3 3 0 0 0-3 3v17a3 3 0 0 0 3 3h17a3 3 0 0 0 3-3V3a3 3 0 0 0-3-3z" id="svg_1" class="" fill="#ffffff" fill-opacity="1"/><rect fill="#e84141" stroke="#ffffff" style="color: rgb(0, 0, 0);" stroke-dashoffset="" fill-rule="nonzero" opacity="0" id="svg_2" x="21.244897842407227" y="2.57142972946167" width="1.8163264989852905" height="8.938775062561035" class="" fill-opacity="1" stroke-opacity="1" transform="rotate(89.7364, 22.1531, 7.04082)"/><rect fill="#ffffff" stroke="#484848" style="color: rgb(0, 0, 0);" stroke-dashoffset="" fill-rule="nonzero" opacity="0" id="svg_4" x="21" y="8" width="0" height="1"/></g></svg>