<svg height="72" width="75" xmlns="http://www.w3.org/2000/svg"><g fill="#81b3d2"><path d="M29.7 65h16V41.2h-16zm2.9-20.9h10.1v18H32.6z"/><path d="M72.8 39.3l2-2.1-9.9-9.9V0H51.1v13.6L37.5 0 .2 37.2l2 2 7.9-7.7V69H6V72H70v-3h-5V31.6zM62 69H13V28.5L37.5 4.1 62 28.5zm0-44.7l-8-8V3h8z"/><path d="M30 27a7.7 7.7 0 1 0 7.8-7.7 7.7 7.7 0 0 0-7.9 7.8zm7.7-4.9a5 5 0 1 1-5 5 5 5 0 0 1 5-5zM17 41.2h3v4h-3zM23 41.2h3v4h-3zM17 47.2h3V51h-3zM23 47.2h3V51h-3zM49 41.2h3v4h-3zM55 41.2h3v4h-3zM49 47.2h3V51h-3zM55 47.2h3V51h-3z"/></g></svg>